Coordinates
version=1
nRows=19
nColumns=24
inDegrees=yes

Units are S.I. units (second, meters, Newtons, ...)
Angles are in degrees.

endheader
time	pelvis_tilt	pelvis_list	pelvis_rotation	pelvis_tx	pelvis_ty	pelvis_tz	hip_flexion_r	hip_adduction_r	hip_rotation_r	knee_angle_r	ankle_angle_r	subtalar_angle_r	mtp_angle_r	hip_flexion_l	hip_adduction_l	hip_rotation_l	knee_angle_l	ankle_angle_l	subtalar_angle_l	mtp_angle_l	lumbar_extension	lumbar_bending	lumbar_rotation
      1.17100000	      3.37553671	      4.47308061	     -1.58452217	      0.11024576	      1.02429480	      0.25580978	     13.33333673	     -4.11811961	     -2.48296266	    -60.15601334	      6.17314762	    -19.35597923	      0.61326028	      5.98875911	      7.00089621	      0.39250763	    -12.11258455	      3.01745102	    -12.86352234	      7.28510450	    -13.16869867	     -6.13120035	      4.27119896
      1.17516667	      3.37245893	      4.37665607	     -1.54202790	      0.11538339	      1.02505782	      0.25561235	     13.73179471	     -3.93753373	     -2.40994140	    -59.32008790	      6.26194145	    -19.31783426	      0.58681200	      5.49888757	      6.93612678	      0.59076114	    -11.79159096	      3.11098955	    -12.99782899	      7.22751228	    -13.21006766	     -6.01692981	      4.06871295
      1.17933333	      3.35612286	      4.27060422	     -1.50412404	      0.12052457	      1.02577083	      0.25545040	     14.12616896	     -3.74012437	     -2.32840345	    -58.41965053	      6.34675933	    -19.25213532	      0.57361137	      5.03559564	      6.84930492	      0.72225417	    -11.49528955	      3.20749946	    -13.06088089	      7.17859070	    -13.22914092	     -5.89269612	      3.93652513
      1.18350000	      3.33400251	      4.16828232	     -1.45799453	      0.12569003	      1.02645692	      0.25529335	     14.50423915	     -3.54617538	     -2.24994900	    -57.45554582	      6.39624713	    -19.20701527	      0.56597159	      4.57194159	      6.76445990	      0.86382640	    -11.18640957	      3.29375710	    -13.12860962	      7.12309573	    -13.24356402	     -5.77582542	      3.77428593
      1.18766667	      3.28915530	      4.07066473	     -1.41813373	      0.13086251	      1.02706029	      0.25515882	     14.89497331	     -3.35702503	     -2.16615538	    -56.44642876	      6.44235016	    -19.12365840	      0.56593288	      4.14344075	      6.67579648	      0.94285815	    -10.89662570	      3.37750850	    -13.13108986	      7.09975306	    -13.22333647	     -5.66170142	      3.67449027
      1.19183333	      3.25173697	      3.96044762	     -1.35305516	      0.13605038	      1.02765082	      0.25500215	     15.24636797	     -3.16100011	     -2.11288974	    -55.36656784	      6.43438255	    -19.09042559	      0.56584007	      3.70079038	      6.57571111	      1.07221111	    -10.59877955	      3.47727042	    -13.15713172	      7.07241421	    -13.21291471	     -5.53087801	      3.52593506
      1.19600000	      3.22235179	      3.86952105	     -1.29343556	      0.14124234	      1.02820896	      0.25485784	     15.57781014	     -2.98898227	     -2.05623846	    -54.24919849	      6.40170226	    -19.07515398	      0.56647119	      3.24102787	      6.49475413	      1.19595955	    -10.27887870	      3.56373114	    -13.18445094	      7.04383279	    -13.21273990	     -5.41853732	      3.35817048
      1.20016667	      3.19051507	      3.78622953	     -1.22695451	      0.14643778	      1.02870189	      0.25471246	     15.89628622	     -2.83062799	     -2.00973082	    -53.09307338	      6.35053947	    -19.07692264	      0.56718306	      2.78436251	      6.42041418	      1.32258937	     -9.95955028	      3.64935721	    -13.21934741	      7.01420091	    -13.20836311	     -5.31824134	      3.17923296
      1.20433333	      3.15950356	      3.71407182	     -1.15025424	      0.15164505	      1.02915994	      0.25455959	     16.19667484	     -2.69015699	     -1.97777841	    -51.89712140	      6.24958070	    -19.15815727	      0.56794201	      2.31348914	      6.36100511	      1.49912549	     -9.61377342	      3.74628745	    -13.30107079	      6.96162840	    -13.20628595	     -5.23219933	      2.92744016
      1.20850000	      3.11179271	      3.64095024	     -1.07822116	      0.15685639	      1.02954589	      0.25441947	     16.49985519	     -2.55151047	     -1.94497402	    -50.66288374	      6.15795981	    -19.18911052	      0.56843198	      1.87031015	      6.29396734	      1.62422929	     -9.28465711	      3.82511830	    -13.33909806	      6.91369318	    -13.17997039	     -5.14119099	      2.74464287
      1.21266667	      3.05257409	      3.57266399	     -1.00012728	      0.16207255	      1.02985859	      0.25428830	     16.80060543	     -2.42157154	     -1.91990050	    -49.39658537	      6.04310074	    -19.24678736	      0.56574251	      1.44397470	      6.22934853	      1.74956574	     -8.96487694	      3.91146684	    -13.36717197	      6.86655501	    -13.13783081	     -5.05679906	      2.55202066
      1.21683333	      2.98849855	      3.50003131	     -0.92167446	      0.16730178	      1.03013047	      0.25414960	     17.08706478	     -2.29404102	     -1.90288203	    -48.09058831	      5.93454568	    -19.25434565	      0.56122245	      1.03091909	      6.15632041	      1.83308403	     -8.66061016	      3.97972507	    -13.35904566	      6.83909966	    -13.08559382	     -4.95890993	      2.40897137
      1.22100000	      2.94117042	      3.45536902	     -0.84194669	      0.17252578	      1.03035945	      0.25403210	     17.34791782	     -2.19865492	     -1.88823029	    -46.76834844	      5.76890043	    -19.40023046	      0.55018518	      0.58060102	      6.11592197	      1.97816115	     -8.31696462	      4.08328879	    -13.40279645	      6.79467667	    -13.06287177	     -4.90520628	      2.16726357
      1.22516667	      2.85757779	      3.39702968	     -0.76194564	      0.17776887	      1.03049856	      0.25390108	     17.62916701	     -2.09774667	     -1.88699107	    -45.41158775	      5.64871887	    -19.40695702	      0.54187811	      0.18885476	      6.05562055	      2.05952443	     -8.01120303	      4.14751481	    -13.39539178	      6.76955019	    -12.98573709	     -4.82184845	      2.02374310
      1.22933333	      2.80966438	      3.34541038	     -0.67627403	      0.18300516	      1.03064720	      0.25378499	     17.85239412	     -2.00376927	     -1.88593658	    -44.01901005	      5.45032070	    -19.58372980	      0.52380003	     -0.25832270	      6.00454821	      2.21011232	     -7.67455167	      4.25709625	    -13.43688000	      6.72580574	    -12.95950575	     -4.76197573	      1.77383229
      1.23350000	      2.73955712	      3.29725112	     -0.59289137	      0.18824975	      1.03071638	      0.25366694	     18.08739340	     -1.92219349	     -1.89551934	    -42.60602733	      5.28596629	    -19.66747510	      0.50513582	     -0.67265794	      5.95445431	      2.32766164	     -7.35252606	      4.33826422	    -13.46469623	      6.68128507	    -12.90077819	     -4.69507554	      1.57062593
      1.23766667	      2.64532927	      3.25174313	     -0.51192334	      0.19351905	      1.03068981	      0.25354544	     18.33591344	     -1.85226220	     -1.91885425	    -41.17714222	      5.15739715	    -19.66592687	      0.49250717	     -1.04724251	      5.90375001	      2.39823916	     -7.06036328	      4.41069060	    -13.45233877	      6.65735346	    -12.80183844	     -4.62190951	      1.43489381
      1.24183333	      2.57353848	      3.21772439	     -0.42918869	      0.19876429	      1.03065621	      0.25345621	     18.54572116	     -1.78949865	     -1.92866975	    -39.72106900	      4.95458461	    -19.82462461	      0.46944723	     -1.46108618	      5.86613735	      2.53871169	     -6.73656718	      4.51687153	    -13.48983734	      6.61389706	    -12.75118088	     -4.58410266	      1.19063481
      1.24600000	      2.49000168	      3.18144487	     -0.34933801	      0.20403320	      1.03057277	      0.25336804	     18.75070982	     -1.73308971	     -1.95330455	    -38.24152990	      4.79660083	    -19.86573448	      0.45013642	     -1.85490124	      5.82347991	      2.64876801	     -6.42885181	      4.60659016	    -13.50298203	      6.57420227	    -12.67664695	     -4.53458971	      1.00782662
